<?xml version="1.0" encoding="utf-8"?>
<svg width="217px" height="42px" viewBox="0 0 217 42" version="1.1" xmlns:xlink="http://www.w3.org/1999/xlink" xmlns="http://www.w3.org/2000/svg">
  <desc>Created with Lunacy</desc>
  <defs>
    <path d="M0 39.8685L214.884 39.8685L214.884 0L0 0L0 39.8685Z" id="path_1" />
    <clipPath id="mask_1">
      <use xlink:href="#path_1" />
    </clipPath>
  </defs>
  <g id="Group-63" transform="translate(0.7421875 0.7425537)">
    <path d="M22.5345 6.42037L22.5345 14.5837L19.5073 14.5837L19.5073 6.63444C19.5073 4.28037 18.2842 2.90444 16.3582 2.90444C14.3095 2.8737 12.9642 4.34148 12.7809 6.45111L12.7809 14.5837L9.75363 14.5837L9.75363 6.60407C9.75363 4.24963 8.53059 2.90444 6.75713 2.90444C4.89219 2.90444 2.99613 4.03556 2.99613 6.94L2.99613 14.5837L0 14.5837L0 0.305556L2.99613 0.305556L2.99613 2.56815C3.6384 0.978148 5.50371 0 7.46051 0C9.5088 0 11.2826 1.03926 12.1079 2.8737C13.392 0.458518 15.624 0 17.0308 0C20.6081 0 22.5345 2.35407 22.5345 6.42037" transform="translate(39.46387 15.05957)" id="Fill-1" fill="#243953" stroke="none" />
    <path d="M0 39.8685L214.884 39.8685L214.884 0L0 0L0 39.8685Z" id="Clip-4" fill="none" stroke="none" />
    <g clip-path="url(#mask_1)">
      <path d="M2.04829 0C0.947473 0 0 0.825556 0 1.92593C0 3.02667 0.947473 3.85222 2.04829 3.85222C3.17985 3.85222 4.09695 3.02667 4.09695 1.92593C4.09695 0.825556 3.17985 0 2.04829 0ZM3.54654 7.1237L3.54654 21.4019L0.550038 21.4019L0.550038 7.1237L3.54654 7.1237Z" transform="translate(65.73047 8.241455)" id="Fill-3" fill="#243953" fill-rule="evenodd" stroke="none" />
      <path d="M13.3617 6.42037L13.3617 14.5837L10.3652 14.5837L10.3652 6.63444C10.3652 4.31074 8.95839 2.96556 7.12419 2.96556C5.25888 2.96556 2.9965 4.00519 2.9965 6.97074L2.9965 14.5837L0 14.5837L0 0.305556L2.9965 0.305556L2.9965 2.50704C3.82174 0.764444 6.11523 0 7.64386 0C11.2519 0 13.392 2.35407 13.3617 6.42037" transform="translate(73.77246 15.05957)" id="Fill-5" fill="#243953" stroke="none" />
      <path d="M15.0129 22.0133L15.0129 0L12.0164 0L12.0164 9.84482C11.0685 8.22444 9.081 7.42963 7.06308 7.42963C3.21059 7.42963 0 10.3037 0 14.8593C0 19.3841 3.21059 22.3193 7.09382 22.3193C9.01988 22.3193 11.0685 21.4937 12.0164 19.8733L12.0164 22.0133L15.0129 22.0133ZM7.42977 10.273C9.63177 10.273 11.986 11.9544 11.986 14.8285C11.986 17.7026 9.84549 19.4759 7.42977 19.4759C4.98405 19.4759 2.99613 17.4885 2.99613 14.8285C2.99613 12.1381 4.98405 10.273 7.42977 10.273Z" transform="translate(90.5293 7.629761)" id="Fill-6" fill="#243953" fill-rule="evenodd" stroke="none" />
      <path d="M5.74854 6.08407L5.74854 7.73519L9.01988 7.73519L9.01988 10.2422L5.74854 10.2422L5.74854 22.0133L2.75204 22.0133L2.75204 10.2422L0 10.2422L0 7.73519L2.75204 7.73519L2.75204 6.42037C2.75204 2.53741 4.43364 0 8.31687 0L9.90697 0L9.90697 2.84333L8.86727 2.84333C6.39044 2.84333 5.7178 4.28037 5.74854 6.08407" transform="translate(108.5088 7.630005)" id="Fill-7" fill="#243953" stroke="none" />
      <path d="M13.362 0L13.362 14.2781L10.3655 14.2781L10.3655 12.1074C9.53986 13.85 7.24674 14.5837 5.74812 14.5837C2.14047 14.5837 -0.0304206 12.2296 0.000322223 8.16333L0.000322223 0L2.99682 0L2.99682 7.94926C2.99682 10.273 4.40322 11.6181 6.23779 11.6181C8.10273 11.6181 10.3655 10.5785 10.3655 7.64333L10.3655 0L13.362 0Z" transform="translate(120.1582 15.36523)" id="Fill-8" fill="#243953" stroke="none" />
      <path d="M0 22.0133L2.99651 22.0133L2.99651 0L0 0L0 22.0133Z" transform="translate(137.9854 7.630005)" id="Fill-9" fill="#243953" stroke="none" />
      <path d="M7.79721 7.36852L4.5255 7.36852L4.5255 19.9652L2.59907 19.9652L2.59907 7.36852L0 7.36852L0 5.68704L2.59907 5.68704L2.59907 0L4.5255 0L4.5255 5.68704L7.79721 5.68704L7.79721 7.36852Z" transform="translate(145.6572 9.678223)" id="Fill-10" fill="#FFFFFF" stroke="none" />
      <path d="M1.98791 8.25519L14.2795 8.25519C14.3099 7.98 14.3099 7.67444 14.3099 7.39926C14.3099 2.87407 11.3441 0 7.27754 0C3.24133 0 0 2.87407 0 7.39926C0 11.9241 3.24133 14.89 7.27754 14.89C9.96846 14.89 12.4142 13.6056 13.668 11.3126L11.9864 10.5789C11.0382 12.1381 9.29545 13.0248 7.33865 13.0248C4.46438 13.0248 2.32423 11.3126 1.98791 8.25519ZM7.27754 1.86519C10.06 1.86519 12.1086 3.60815 12.3838 6.5737L2.01866 6.5737C2.38535 3.5163 4.46438 1.86519 7.27754 1.86519Z" transform="translate(155.167 15.0592)" id="Fill-11" fill="#FFFFFF" fill-rule="evenodd" stroke="none" />
      <path d="M14.8907 14.5837L14.8907 0.305926L12.9339 0.305926L12.9339 3.05741C11.8638 1.13111 9.66215 0 7.2468 0C3.24133 0 0 3.08778 0 7.42926C0 11.7711 3.27171 14.8896 7.2468 14.8896C9.63177 14.8896 11.8638 13.7581 12.9339 11.8015L12.9339 14.5837L14.8907 14.5837ZM7.39977 1.86519C10.2429 1.86519 12.9339 4.03556 12.9339 7.49074C12.9339 10.7926 10.3655 13.0244 7.39977 13.0244C4.40327 13.0244 1.9568 10.5785 1.9568 7.39889C1.9568 4.25 4.40327 1.86519 7.39977 1.86519Z" transform="translate(172.3213 15.05945)" id="Fill-12" fill="#FFFFFF" fill-rule="evenodd" stroke="none" />
      <path d="M22.7793 6.26778L22.7793 14.5841L20.8225 14.5841L20.8225 6.35963C20.8225 3.60778 19.1717 1.89556 16.8171 1.89556C14.1265 1.86519 12.1694 3.82185 12.3838 7.30741L12.3531 7.18519L12.3531 14.5841L10.4266 14.5841L10.4266 6.35963C10.4266 3.57741 8.77542 1.89556 6.51304 1.89556C4.21992 1.89556 2.01829 3.24111 1.9568 6.66518L1.9568 14.5841L0 14.5841L0 0.305926L1.9568 0.305926L1.9568 2.87407C2.69093 0.978518 4.73958 0 6.84936 0C9.17322 0 11.0689 1.22296 11.8638 3.42444C12.9035 0.581111 15.3799 0 17.123 0C20.5781 0 22.7793 2.3237 22.7793 6.26778" transform="translate(192.1045 15.05933)" id="Fill-13" fill="#FFFFFF" stroke="none" />
      <path d="M26.9341 9.54593C26.9341 14.8181 20.9048 19.0922 13.4672 19.0922C6.02967 19.0922 0 14.8181 0 9.54593C0 4.2737 6.02967 0 13.4672 0C20.9048 0 26.9341 4.2737 26.9341 9.54593" transform="translate(0.3496094 13.38245)" id="Fill-14" fill="#FFFFFF" stroke="none" />
      <path d="M26.9341 9.54593C26.9341 14.8181 20.9048 19.0922 13.4672 19.0922C6.02967 19.0922 0 14.8181 0 9.54593C0 4.2737 6.02967 0 13.4672 0C20.9048 0 26.9341 4.2737 26.9341 9.54593Z" transform="translate(0.3496094 13.38245)" id="Stroke-15" fill="none" stroke="#243953" stroke-width="1.289" />
      <path d="M0.536147 0.654371C-0.404658 1.66993 -0.0750058 3.50437 1.27175 4.75178C2.61888 5.99882 4.47309 6.18659 5.41389 5.17067C6.35433 4.15474 6.02504 2.3203 4.67829 1.07326C3.33116 -0.173777 1.47695 -0.361555 0.536147 0.654371" transform="translate(19.97363 0.0002441406)" id="Fill-16" fill="#243953" stroke="none" />
      <path d="M5.41373 0.654371C6.35453 1.66993 6.02488 3.50437 4.67812 4.75178C3.33099 5.99882 1.47679 6.18659 0.535986 5.17067C-0.40445 4.15474 -0.0751676 2.3203 1.27159 1.07326C2.61872 -0.173777 4.47292 -0.361555 5.41373 0.654371" transform="translate(2.43457 0.0002441406)" id="Fill-17" fill="#243953" stroke="none" />
      <path d="M20.6062 9.44C20.6062 14.6537 15.9933 18.88 10.3029 18.88C4.61291 18.88 0 14.6537 0 9.44C0 4.22667 4.61291 0 10.3029 0C15.9933 0 20.6062 4.22667 20.6062 9.44" transform="translate(3.615234 0.3905029)" id="Fill-18" fill="#FFFFFF" stroke="none" />
      <path d="M20.6062 9.44C20.6062 14.6537 15.9933 18.88 10.3029 18.88C4.61291 18.88 0 14.6537 0 9.44C0 4.22667 4.61291 0 10.3029 0C15.9933 0 20.6062 4.22667 20.6062 9.44Z" transform="translate(3.615234 0.3905029)" id="Stroke-19" fill="none" stroke="#243953" stroke-width="1.259" />
      <path d="M6.8398 3.52712C6.49941 5.83231 4.38408 7.30416 3.44994 7.30416C1.40461 7.30416 -0.268835 5.97564 0.0360008 3.82194C0.358245 1.54749 1.71167 0.860458 3.33734 0.178976C5.22376 -0.611765 7.16205 1.34638 6.8398 3.52712" transform="translate(5.668945 3.323608)" id="Fill-20" fill="#243953" stroke="none" />
      <path d="M3.35431 0C3.07058 0.644445 2.42646 1.09407 1.67715 1.09407C0.927842 1.09407 0.283723 0.644445 0 0" transform="translate(7.43457 7.287231)" id="Stroke-21" fill="none" stroke="#FFFFFF" stroke-width="1.101" />
      <path d="M3.14503 0.845185C3.14503 1.31222 2.44091 1.8963 1.57233 1.8963C0.704122 1.8963 0 1.31222 0 0.845185C0 0.378519 0.246313 0 1.57233 0C3.02428 0 3.14503 0.378519 3.14503 0.845185" transform="translate(12.54492 8.38147)" id="Fill-22" fill="#243953" stroke="none" />
      <path d="M3.92185 0C3.92185 0 -0.0795405 1.60482 0.00120583 4.34259C0.0819521 7.08 2.01912 9.25371 5.65159 9.41445C9.28444 9.57556 13.8781 7.90185 13.8781 7.90185L13.8781 0.253704C13.8781 0.253704 11.4235 1.20259 10.939 3.21519C10.939 3.21519 6.87501 1.96482 5.07267 2.02667L3.92185 0Z" transform="translate(0.3496094 13.12866)" id="Fill-23" fill="#243953" stroke="none" />
      <path d="M0.0353394 3.52712C0.375733 5.83231 2.49106 7.30416 3.4252 7.30416C5.47053 7.30416 7.14398 5.97564 6.83914 3.82194C6.5169 1.54749 5.16347 0.860458 3.5378 0.178976C1.65138 -0.611765 -0.286905 1.34638 0.0353394 3.52712" transform="translate(15.81348 3.323608)" id="Fill-24" fill="#243953" stroke="none" />
      <path d="M0 0C0.284094 0.644445 0.927842 1.09407 1.67715 1.09407C2.42646 1.09407 3.07058 0.644445 3.35431 0" transform="translate(17.56934 7.287231)" id="Stroke-25" fill="none" stroke="#FFFFFF" stroke-width="1.101" />
      <path d="M9.65659 0C9.65659 0 13.6476 1.60481 13.5672 4.34259C13.4865 7.08 11.5541 9.2537 7.93092 9.41444C4.3077 9.57556 0 7.96556 0 7.96556L0.0348172 0.253704C0.0348172 0.253704 2.17385 1.20259 2.65722 3.21519C2.65722 3.21519 6.71083 1.96481 8.50836 2.02667L9.65659 0Z" transform="translate(14.19336 13.12866)" id="Fill-26" fill="#243953" stroke="none" />
      <path d="M0.185198 0L0.185198 3.23704" transform="translate(14.04297 13.12866)" id="Stroke-27" fill="none" stroke="#FFFFFF" stroke-width="1.101" />
      <path d="M0.185198 0L0.185198 3.23704" transform="translate(14.04297 13.12866)" id="Stroke-28" fill="none" stroke="#FFFFFF" stroke-width="1.101" />
      <path d="M0.195754 0.300741C0.191309 0.151852 0.174642 0.0696297 0.174642 0.0696297C0.184272 0.147778 0.187605 0.223334 0.195754 0.300741" transform="translate(27.0791 22.72852)" id="Fill-29" fill="#243953" stroke="none" />
      <path d="M27.208 0.0148148C27.2406 1.10481 26.6172 5.81296 13.9789 8.74333C0.651727 5.79926 0.0342769 1.06148 0.0705757 0C-0.855784 8.36481 7.64332 12.4278 7.64332 12.4278C6.17025 12.9778 6.06766 14.3622 6.06284 14.6548C6.0621 14.6889 6.07766 15.3378 6.10358 15.3574C9.30603 17.76 12.9889 16.623 13.8226 16.3178L13.8226 10.7748C13.8226 10.6489 13.9245 10.547 14.0504 10.547C14.1764 10.547 14.2782 10.6489 14.2782 10.7748L14.2782 16.3615C15.245 16.7152 18.5407 17.6552 21.4587 15.3574C21.4835 15.3378 21.4983 14.6889 21.4976 14.6548C21.4932 14.3622 21.3954 12.9778 19.9919 12.4278C19.9919 12.4278 28.0792 8.36963 27.208 0.0148148" transform="translate(0.06640625 23.0144)" id="Fill-30" fill="#243953" stroke="none" />
      <path d="M0.174827 0.293334C0.182605 0.220741 0.185939 0.150371 0.195569 0.0770371C0.195569 0.0770371 0.179642 0.154074 0.174827 0.293334" transform="translate(-0.03808594 22.72107)" id="Fill-31" fill="#243953" stroke="none" />
      <path d="M4.84515 0C4.43549 0.62037 3.50469 1.05333 2.42239 1.05333C1.34046 1.05333 0.409658 0.62037 0 0" transform="translate(11.80566 11.33105)" id="Stroke-32" fill="none" stroke="#243953" stroke-width="1.485" />
      <path d="M22.5345 6.42037L22.5345 14.5837L19.5073 14.5837L19.5073 6.63444C19.5073 4.28037 18.2842 2.90444 16.3582 2.90444C14.3095 2.8737 12.9642 4.34148 12.7809 6.45111L12.7809 14.5837L9.75363 14.5837L9.75363 6.60407C9.75363 4.24963 8.53059 2.90444 6.75713 2.90444C4.89219 2.90444 2.99613 4.03556 2.99613 6.94L2.99613 14.5837L0 14.5837L0 0.305556L2.99613 0.305556L2.99613 2.56815C3.6384 0.978148 5.50371 0 7.46051 0C9.5088 0 11.2826 1.03926 12.1079 2.8737C13.392 0.458518 15.624 0 17.0308 0C20.6081 0 22.5345 2.35407 22.5345 6.42037" transform="translate(39.46387 15.05957)" id="Fill-33" fill="#243953" stroke="none" />
      <path d="M2.04829 0C0.947473 0 0 0.825556 0 1.92593C0 3.02667 0.947473 3.85222 2.04829 3.85222C3.17985 3.85222 4.09695 3.02667 4.09695 1.92593C4.09695 0.825556 3.17985 0 2.04829 0ZM3.54654 7.1237L3.54654 21.4019L0.550038 21.4019L0.550038 7.1237L3.54654 7.1237Z" transform="translate(65.73047 8.241455)" id="Fill-34" fill="#243953" fill-rule="evenodd" stroke="none" />
      <path d="M13.3617 6.42037L13.3617 14.5837L10.3652 14.5837L10.3652 6.63444C10.3652 4.31074 8.95839 2.96556 7.12419 2.96556C5.25888 2.96556 2.9965 4.00519 2.9965 6.97074L2.9965 14.5837L0 14.5837L0 0.305556L2.9965 0.305556L2.9965 2.50704C3.82174 0.764444 6.11523 0 7.64386 0C11.2519 0 13.392 2.35407 13.3617 6.42037" transform="translate(73.77246 15.05957)" id="Fill-35" fill="#243953" stroke="none" />
      <path d="M15.0129 22.0133L15.0129 0L12.0164 0L12.0164 9.84482C11.0685 8.22444 9.081 7.42963 7.06308 7.42963C3.21059 7.42963 0 10.3037 0 14.8593C0 19.3841 3.21059 22.3193 7.09382 22.3193C9.01988 22.3193 11.0685 21.4937 12.0164 19.8733L12.0164 22.0133L15.0129 22.0133ZM7.42973 10.2729C9.63174 10.2729 11.986 11.9544 11.986 14.8285C11.986 17.7026 9.84545 19.4759 7.42973 19.4759C4.98401 19.4759 2.99609 17.4885 2.99609 14.8285C2.99609 12.1381 4.98401 10.2729 7.42973 10.2729Z" transform="translate(90.5293 7.629761)" id="Fill-36" fill="#243953" fill-rule="evenodd" stroke="none" />
      <path d="M5.74854 6.08407L5.74854 7.73519L9.01988 7.73519L9.01988 10.2422L5.74854 10.2422L5.74854 22.0133L2.75204 22.0133L2.75204 10.2422L0 10.2422L0 7.73519L2.75204 7.73519L2.75204 6.42037C2.75204 2.53741 4.43364 0 8.31687 0L9.90697 0L9.90697 2.84333L8.86727 2.84333C6.39044 2.84333 5.7178 4.28037 5.74854 6.08407" transform="translate(108.5088 7.630005)" id="Fill-37" fill="#243953" stroke="none" />
      <path d="M13.362 0L13.362 14.2781L10.3655 14.2781L10.3655 12.1074C9.53986 13.85 7.24674 14.5837 5.74812 14.5837C2.14047 14.5837 -0.0304206 12.2296 0.000322223 8.16333L0.000322223 0L2.99682 0L2.99682 7.94926C2.99682 10.273 4.40322 11.6181 6.23779 11.6181C8.10273 11.6181 10.3655 10.5785 10.3655 7.64333L10.3655 0L13.362 0Z" transform="translate(120.1582 15.36523)" id="Fill-38" fill="#243953" stroke="none" />
      <path d="M0 22.0133L2.99651 22.0133L2.99651 0L0 0L0 22.0133Z" transform="translate(137.9854 7.630005)" id="Fill-39" fill="#243953" stroke="none" />
      <path d="M7.79721 7.36852L4.5255 7.36852L4.5255 19.9652L2.59907 19.9652L2.59907 7.36852L0 7.36852L0 5.68704L2.59907 5.68704L2.59907 0L4.5255 0L4.5255 5.68704L7.79721 5.68704L7.79721 7.36852Z" transform="translate(145.6572 9.678223)" id="Fill-40" fill="#00BFB4" stroke="none" />
      <path d="M1.98791 8.25519L14.2795 8.25519C14.3099 7.98 14.3099 7.67444 14.3099 7.39926C14.3099 2.87407 11.3441 0 7.27754 0C3.24133 0 0 2.87407 0 7.39926C0 11.9241 3.24133 14.89 7.27754 14.89C9.96846 14.89 12.4142 13.6056 13.668 11.3126L11.9864 10.5789C11.0382 12.1381 9.29545 13.0248 7.33865 13.0248C4.46438 13.0248 2.32423 11.3126 1.98791 8.25519ZM7.27754 1.86519C10.06 1.86519 12.1086 3.60815 12.3838 6.5737L2.01866 6.5737C2.38535 3.5163 4.46438 1.86519 7.27754 1.86519Z" transform="translate(155.167 15.0592)" id="Fill-41" fill="#00BFB4" fill-rule="evenodd" stroke="none" />
      <path d="M14.8907 14.5837L14.8907 0.305926L12.9339 0.305926L12.9339 3.05741C11.8638 1.13111 9.66215 0 7.2468 0C3.24133 0 0 3.08778 0 7.42926C0 11.7711 3.27171 14.8896 7.2468 14.8896C9.63177 14.8896 11.8638 13.7581 12.9339 11.8015L12.9339 14.5837L14.8907 14.5837ZM7.39977 1.86519C10.2429 1.86519 12.9339 4.03556 12.9339 7.49074C12.9339 10.7926 10.3655 13.0244 7.39977 13.0244C4.40327 13.0244 1.9568 10.5785 1.9568 7.39889C1.9568 4.25 4.40327 1.86519 7.39977 1.86519Z" transform="translate(172.3213 15.05945)" id="Fill-42" fill="#00BFB4" fill-rule="evenodd" stroke="none" />
      <path d="M22.7793 6.26778L22.7793 14.5841L20.8225 14.5841L20.8225 6.35963C20.8225 3.60778 19.1717 1.89556 16.8171 1.89556C14.1265 1.86519 12.1694 3.82185 12.3838 7.30741L12.3531 7.18519L12.3531 14.5841L10.4266 14.5841L10.4266 6.35963C10.4266 3.57741 8.77542 1.89556 6.51304 1.89556C4.21992 1.89556 2.01829 3.24111 1.9568 6.66518L1.9568 14.5841L0 14.5841L0 0.305926L1.9568 0.305926L1.9568 2.87407C2.69093 0.978518 4.73958 0 6.84936 0C9.17322 0 11.0689 1.22296 11.8638 3.42444C12.9035 0.581111 15.3799 0 17.123 0C20.5781 0 22.7793 2.3237 22.7793 6.26778" transform="translate(192.1045 15.05933)" id="Fill-43" fill="#00BFB4" stroke="none" />
      <path d="M26.9337 9.54593C26.9337 14.8181 20.9044 19.0922 13.4669 19.0922C6.0293 19.0922 0 14.8181 0 9.54593C0 4.2737 6.0293 0 13.4669 0C20.9044 0 26.9337 4.2737 26.9337 9.54593" transform="translate(0.2392578 13.38245)" id="Fill-44" fill="#FFFFFF" stroke="none" />
      <path d="M0 9.78481C0 15.1804 6.1482 19.5696 13.7058 19.5696C21.2633 19.5696 27.4115 15.1804 27.4115 9.78481C27.4115 4.38963 21.2633 0 13.7058 0C6.1482 0 0 4.38963 0 9.78481ZM0.47744 9.78481C0.47744 4.65259 6.41192 0.477407 13.7058 0.477407C20.9996 0.477407 26.9341 4.65259 26.9341 9.78481C26.9341 14.917 20.9996 19.0922 13.7058 19.0922C6.41192 19.0922 0.47744 14.917 0.47744 9.78481Z" transform="translate(0 13.14355)" id="Fill-45" fill="#243953" fill-rule="evenodd" stroke="none" />
      <path d="M0.536147 0.654371C-0.404658 1.66993 -0.0750058 3.50437 1.27175 4.75178C2.61888 5.99882 4.47309 6.18659 5.41389 5.17067C6.35433 4.15474 6.02504 2.3203 4.67829 1.07326C3.33116 -0.173777 1.47695 -0.361555 0.536147 0.654371" transform="translate(19.97363 0.0002441406)" id="Fill-46" fill="#243953" stroke="none" />
      <path d="M5.41373 0.654371C6.35453 1.66993 6.02488 3.50437 4.67812 4.75178C3.33099 5.99882 1.47679 6.18659 0.535986 5.17067C-0.40445 4.15474 -0.0751676 2.3203 1.27159 1.07326C2.61872 -0.173777 4.47292 -0.361555 5.41373 0.654371" transform="translate(2.43457 0.0002441406)" id="Fill-47" fill="#243953" stroke="none" />
      <path d="M20.6062 9.44C20.6062 14.6537 15.9933 18.88 10.3029 18.88C4.61291 18.88 0 14.6537 0 9.44C0 4.22667 4.61291 0 10.3029 0C15.9933 0 20.6062 4.22667 20.6062 9.44" transform="translate(3.615234 0.3905029)" id="Fill-48" fill="#FFFFFF" stroke="none" />
      <path d="M0 9.67296C0 15.0067 4.72662 19.3463 10.5363 19.3463C16.3463 19.3463 21.0726 15.0067 21.0726 9.67296C21.0726 4.33963 16.3463 0 10.5363 0C4.72662 0 0 4.33963 0 9.67296ZM0.466328 9.67296C0.466328 4.5963 4.98368 0.466296 10.5363 0.466296C16.0889 0.466296 20.6062 4.5963 20.6062 9.67296C20.6062 14.7496 16.0889 18.88 10.5363 18.88C4.98368 18.88 0.466328 14.7496 0.466328 9.67296Z" transform="translate(3.381836 0.1573486)" id="Fill-49" fill="#243953" fill-rule="evenodd" stroke="none" />
      <path d="M6.8398 3.52712C6.49941 5.83231 4.38408 7.30416 3.44994 7.30416C1.40461 7.30416 -0.268835 5.97564 0.0360008 3.82194C0.358245 1.54749 1.71167 0.860458 3.33734 0.178976C5.22376 -0.611765 7.16205 1.34638 6.8398 3.52712" transform="translate(5.668945 3.323608)" id="Fill-50" fill="#243953" stroke="none" />
      <path d="M1.86383 1.38037C1.05674 1.38037 0.325208 0.902963 0 0.164444L0.373359 0C0.633747 0.590741 1.2186 0.972222 1.86383 0.972222C2.50906 0.972222 3.09429 0.590741 3.35431 0L3.72766 0.164444C3.40246 0.902963 2.67092 1.38037 1.86383 1.38037" transform="translate(7.248047 7.204956)" id="Fill-51" fill="#FFFFFF" stroke="none" />
      <path d="M3.14503 0.845185C3.14503 1.31222 2.44091 1.8963 1.57233 1.8963C0.704122 1.8963 0 1.31222 0 0.845185C0 0.378519 0.246313 0 1.57233 0C3.02428 0 3.14503 0.378519 3.14503 0.845185" transform="translate(12.54492 8.38147)" id="Fill-52" fill="#243953" stroke="none" />
      <path d="M3.92185 0C3.92185 0 -0.0795405 1.60482 0.00120583 4.34259C0.0819521 7.08 2.01912 9.25371 5.65159 9.41445C9.28444 9.57556 13.8781 7.90185 13.8781 7.90185L13.8781 0.253704C13.8781 0.253704 11.4235 1.20259 10.939 3.21519C10.939 3.21519 6.87501 1.96482 5.07267 2.02667L3.92185 0Z" transform="translate(0.3496094 13.12866)" id="Fill-53" fill="#243953" stroke="none" />
      <path d="M0.0353394 3.52712C0.375733 5.83231 2.49106 7.30416 3.4252 7.30416C5.47053 7.30416 7.14398 5.97564 6.83914 3.82194C6.5169 1.54749 5.16347 0.860458 3.5378 0.178976C1.65138 -0.611765 -0.286905 1.34638 0.0353394 3.52712" transform="translate(15.81348 3.323608)" id="Fill-54" fill="#243953" stroke="none" />
      <path d="M1.86383 1.38037C1.05711 1.38037 0.325578 0.902963 0 0.164444L0.373359 0C0.633377 0.590741 1.2186 0.972222 1.86383 0.972222C2.50906 0.972222 3.09392 0.590741 3.35431 0L3.72766 0.164444C3.40246 0.902963 2.67093 1.38037 1.86383 1.38037" transform="translate(17.38281 7.204956)" id="Fill-55" fill="#FFFFFF" stroke="none" />
      <path d="M9.65659 0C9.65659 0 13.6476 1.60481 13.5672 4.34259C13.4865 7.08 11.5541 9.2537 7.93092 9.41444C4.3077 9.57556 0 7.96556 0 7.96556L0.0348172 0.253704C0.0348172 0.253704 2.17385 1.20259 2.65722 3.21519C2.65722 3.21519 6.71083 1.96481 8.50836 2.02667L9.65659 0Z" transform="translate(14.19336 13.12866)" id="Fill-56" fill="#243953" stroke="none" />
      <path d="M0.185198 0L0.185198 3.23704" transform="translate(14.04297 13.12866)" id="Stroke-57" fill="none" stroke="#FFFFFF" stroke-width="1.101" />
      <path d="M0.185198 0L0.185198 3.23704" transform="translate(14.04297 13.12866)" id="Stroke-58" fill="none" stroke="#FFFFFF" stroke-width="1.101" />
      <path d="M0.195754 0.300741C0.191309 0.151852 0.174642 0.0696297 0.174642 0.0696297C0.184272 0.147778 0.187605 0.223334 0.195754 0.300741" transform="translate(27.0791 22.72852)" id="Fill-59" fill="#243953" stroke="none" />
      <path d="M27.208 0.0148148C27.2406 1.10481 26.6172 5.81296 13.9789 8.74333C0.651727 5.79926 0.0342769 1.06148 0.0705757 0C-0.855784 8.36481 7.64332 12.4278 7.64332 12.4278C6.17025 12.9778 6.06766 14.3622 6.06284 14.6548C6.0621 14.6889 6.07766 15.3378 6.10358 15.3574C9.30603 17.76 12.9889 16.623 13.8226 16.3178L13.8226 10.7748C13.8226 10.6489 13.9245 10.547 14.0504 10.547C14.1764 10.547 14.2782 10.6489 14.2782 10.7748L14.2782 16.3615C15.245 16.7152 18.5407 17.6552 21.4587 15.3574C21.4835 15.3378 21.4983 14.6889 21.4976 14.6548C21.4932 14.3622 21.3954 12.9778 19.9919 12.4278C19.9919 12.4278 28.0792 8.36963 27.208 0.0148148" transform="translate(0.06640625 23.0144)" id="Fill-60" fill="#243953" stroke="none" />
      <path d="M0.174827 0.293334C0.182605 0.220741 0.185939 0.150371 0.195569 0.0770371C0.195569 0.0770371 0.179642 0.154074 0.174827 0.293334" transform="translate(-0.03808594 22.72107)" id="Fill-61" fill="#243953" stroke="none" />
      <path d="M2.65203 1.48C1.51344 1.48 0.472255 1.01815 0 0.303333L0.45892 0C0.831909 0.565185 1.69308 0.93037 2.65203 0.93037C3.61099 0.93037 4.47216 0.565185 4.84515 0L5.30407 0.303333C4.83181 1.01815 3.791 1.48 2.65203 1.48" transform="translate(11.57617 11.17944)" id="Fill-62" fill="#243953" stroke="none" />
    </g>
  </g>
</svg>