<?xml version="1.0" encoding="utf-8"?>
<svg width="32px" height="32px" viewBox="0 0 32 32" version="1.1" xmlns:xlink="http://www.w3.org/1999/xlink" xmlns="http://www.w3.org/2000/svg">
  <desc>Created with Lunacy</desc>
  <g id="Outlined/UI/notification">
    <path d="M22 16C22 19.3137 24.6863 22 28 22L28 24L18.91 24C18.5655 26.4089 16.4289 28.1496 14 28C11.6237 28.0005 9.57527 26.3283 9.1 24L0 24L0 22C3.31371 22 6 19.3137 6 16L6 12C6.00523 8.5922 8.16866 5.56179 11.39 4.45C11.1392 4.00754 11.005 3.50858 11 3C11 1.34315 12.3431 0 14 0C15.6569 0 17 1.34315 17 3C16.995 3.50858 16.8608 4.00754 16.61 4.45C19.8313 5.56179 21.9948 8.5922 22 12L22 16ZM14 2C13.4477 2 13 2.44772 13 3C13 3.55228 13.4477 4 14 4C14.5523 4 15 3.55228 15 3C15 2.44772 14.5523 2 14 2ZM8 16C7.99962 18.2962 7.01256 20.4816 5.29 22L22.71 22C20.9874 20.4816 20.0004 18.2962 20 16L20 12C20 8.68629 17.3137 6 14 6C10.6863 6 8 8.68629 8 12L8 16ZM14 26C12.7317 25.9964 11.6027 25.1957 11.18 24L16.86 24C16.5235 25.276 15.314 26.1218 14 26Z" transform="translate(2 2)" id="Style" fill="#243953" fill-rule="evenodd" stroke="none" />
  </g>
</svg>