<?xml version="1.0" encoding="utf-8"?>
<svg width="25px" height="30px" viewBox="0 0 25 30" version="1.1" xmlns:xlink="http://www.w3.org/1999/xlink" xmlns="http://www.w3.org/2000/svg">
  <desc>Created with Lunacy</desc>
  <g id="notification">
    <path d="M22.7633 16.6572L24.9108 20.0916C25.027 20.2763 25.0295 20.5079 24.9194 20.6952C24.8082 20.8836 24.5995 21 24.3745 21L0.6255 21C0.400509 21 0.191807 20.8836 0.0805422 20.6952C-0.0294922 20.508 -0.0269728 20.2763 0.0892723 20.0916L2.2367 16.6572C3.22666 15.072 3.75041 13.2576 3.75041 11.4084L3.75041 8.39997C3.75041 3.76919 7.67649 0 12.5 0C17.3235 0 21.2496 3.76919 21.2496 8.39997L21.2496 11.4084C21.2496 13.2576 21.7734 15.072 22.7633 16.6572ZM3.30818 17.2739L1.72949 19.7999L23.271 19.7999L21.6911 17.2739C20.5849 15.5027 19.9999 13.4747 19.9999 11.4084L19.9999 8.39994C19.9999 4.42915 16.6363 1.19995 12.5003 1.19995C8.36419 1.19995 5.00058 4.42915 5.00058 8.39994L5.00058 11.4084C5.00058 13.4747 4.41561 15.5027 3.30818 17.2739Z" transform="translate(0 5)" id="Shape" fill="#000000" fill-rule="evenodd" stroke="none" />
    <path d="M2.5 0C1.12124 0 0 1.196 0 2.66669L0 5.33337C0 5.70131 0.280017 6 0.625015 6C0.970012 6 1.25003 5.70131 1.25003 5.33331L1.25003 2.66669C1.25003 1.93069 1.81001 1.33337 2.5 1.33337C3.18999 1.33337 3.74997 1.93069 3.74997 2.66669L3.74997 5.33337C3.74997 5.70131 4.02999 6 4.37499 6C4.71998 6 5 5.70131 5 5.33331L5 2.66669C5 1.196 3.87876 0 2.5 0Z" transform="translate(10 0)" id="Path" fill="#000000" stroke="none" />
    <path d="M5.59455 0.308042C5.42541 0.0105161 5.05954 -0.0869986 4.7729 0.0842382C4.4862 0.259284 4.39027 0.643073 4.55817 0.940598C4.71409 1.21691 4.79927 1.54819 4.79927 1.87449C4.79927 2.90841 3.99202 3.74977 3 3.74977C2.00798 3.74977 1.20073 2.90841 1.20073 1.87449C1.20073 1.54819 1.28592 1.21691 1.44183 0.940598C1.60855 0.641783 1.51262 0.259226 1.2271 0.0842382C0.938038 -0.0870572 0.573348 0.0104575 0.405454 0.308042C0.140343 0.780613 0 1.32193 0 1.87455C5.62272e-05 3.59852 1.34467 5 2.99882 5C4.65297 5 5.99758 3.59852 6 1.87455C6 1.32193 5.85966 0.780613 5.59455 0.308042Z" transform="translate(10 25)" id="Path" fill="#000000" stroke="none" />
  </g>
</svg>