<?xml version="1.0" encoding="utf-8"?>
<svg width="30px" height="30px" viewBox="0 0 30 30" version="1.1" xmlns:xlink="http://www.w3.org/1999/xlink" xmlns="http://www.w3.org/2000/svg">
  <desc>Created with Lunacy</desc>
  <path d="M30 15C30 23.2912 23.2901 30 15 30C6.70876 30 0 23.2901 0 15C0 6.70876 6.7099 0 15 0C23.2912 0 30 6.7099 30 15ZM15 2.34375C21.9949 2.34375 27.6563 8.00423 27.6563 15C27.6563 21.9949 21.9958 27.6563 15 27.6563C8.00514 27.6563 2.34375 21.9958 2.34375 15C2.34375 8.00514 8.00423 2.34375 15 2.34375ZM21.6311 10.2404C22.0889 10.6981 22.0889 11.4402 21.6311 11.8977L13.7695 19.7596C13.3117 20.2171 12.5699 20.2171 12.1121 19.7596L8.36969 16.0169C7.91193 15.5594 7.91193 14.8173 8.36969 14.3598C8.82722 13.902 9.56926 13.902 10.0268 14.3598L12.9407 17.2737L19.9738 10.2404C20.4315 9.78283 21.1736 9.78283 21.6311 10.2404Z" id="Shape" fill="#000000" fill-rule="evenodd" stroke="none" />
</svg>