<svg xmlns="http://www.w3.org/2000/svg" xmlns:xlink="http://www.w3.org/1999/xlink" width="24" height="24" viewBox="0 0 24 24">
    <defs>
        <path id="prefix__a" d="M6 9H4v2h2V9zm4 0H8v2h2V9zm4 0h-2v2h2V9zm2-7h-1V0h-2v2H5V0H3v2H2C.89 2 .01 2.9.01 4L0 18c0 1.1.89 2 2 2h14c1.1 0 2-.9 2-2V4c0-1.1-.9-2-2-2zm0 16H2V7h14v11z"/>
    </defs>
    <g fill="none" fill-rule="evenodd" transform="translate(3 2)">
        <mask id="prefix__b" fill="#fff">
            <use xlink:href="#prefix__a"/>
        </mask>
        <g fill="#79828B" mask="url(#prefix__b)">
            <path d="M0 0L50 0 50 50 0 50z" transform="translate(-16 -15)"/>
        </g>
    </g>
</svg>
