<?xml version="1.0" encoding="utf-8"?>
<svg width="32px" height="32px" viewBox="0 0 32 32" version="1.1" xmlns:xlink="http://www.w3.org/1999/xlink" xmlns="http://www.w3.org/2000/svg">
  <desc>Created with Lunacy</desc>
  <g id="Outlined/UI/account_group">
    <path d="M2.94 4C2.94 6.20914 4.73086 8 6.94 8C9.14914 8 10.94 6.20914 10.94 4C10.94 1.79086 9.14914 0 6.94 0C4.73086 0 2.94 1.79086 2.94 4ZM4.94 4C4.94 2.89543 5.83543 2 6.94 2C8.04457 2 8.94 2.89543 8.94 4C8.94 5.10457 8.04457 6 6.94 6C5.83543 6 4.94 5.10457 4.94 4ZM13 12C13 14.7614 15.2386 17 18 17C20.7614 17 23 14.7614 23 12C23 9.23858 20.7614 7 18 7C15.2386 7 13 9.23858 13 12ZM0 13C0 10.7909 1.79086 9 4 9L11 9L11 11L4 11C2.89543 11 2 11.8954 2 13L2 17L0 17L0 13ZM15 12C15 10.3431 16.3431 9 18 9C19.6569 9 21 10.3431 21 12C21 13.6569 19.6569 15 18 15C16.3431 15 15 13.6569 15 12ZM8 23C8 20.2386 10.2386 18 13 18L23 18C25.7614 18 28 20.2386 28 23L28 28L26 28L26 23C26 21.3431 24.6569 20 23 20L13 20C11.3431 20 10 21.3431 10 23L10 28L8 28L8 23Z" transform="translate(2 2)" id="Style" fill="#243953" fill-rule="evenodd" stroke="none" />
  </g>
</svg>