<?xml version="1.0" encoding="utf-8"?>
<svg width="32px" height="32px" viewBox="0 0 32 32" version="1.1" xmlns:xlink="http://www.w3.org/1999/xlink" xmlns="http://www.w3.org/2000/svg">
  <desc>Created with Lunacy</desc>
  <g id="Outlined/UI/shopping_cart">
    <path d="M27.23 4L4.78 4L4.35 2.27C4.01523 0.935604 2.81575 -7.8796e-05 1.44 0L0 0L0 2L1.44 2C1.9107 1.98629 2.32718 2.30282 2.44 2.76L6 17.24L6.37 18.73C6.70743 20.0753 7.92309 21.0139 9.31 21L23 21L23 19L9.31 19C8.8393 19.0137 8.42282 18.6972 8.31 18.24L8.19 17.74L23 14.25C24.0949 13.9955 24.9557 13.1501 25.23 12.06L27.23 4ZM24.72 6L23.33 11.58C23.2375 11.9452 22.9475 12.2274 22.58 12.31L7.73 15.8L5.28 6L24.72 6ZM11 25C11 23.3431 9.65685 22 8 22C6.34315 22 5 23.3431 5 25C5 26.6569 6.34315 28 8 28C9.65685 28 11 26.6569 11 25ZM23 25C23 23.3431 21.6569 22 20 22C18.7866 22 17.6927 22.7309 17.2284 23.8519C16.764 24.973 17.0207 26.2633 17.8787 27.1213C18.7367 27.9793 20.027 28.236 21.1481 27.7716C22.2691 27.3073 23 26.2134 23 25ZM9 25C9 25.5523 8.55228 26 8 26C7.44772 26 7 25.5523 7 25C7 24.4477 7.44772 24 8 24C8.55228 24 9 24.4477 9 25ZM21 25C21 25.5523 20.5523 26 20 26C19.4477 26 19 25.5523 19 25C19 24.4477 19.4477 24 20 24C20.5523 24 21 24.4477 21 25Z" transform="translate(2 2)" id="Style" fill="#243953" fill-rule="evenodd" stroke="none" />
  </g>
</svg>