<?xml version="1.0" encoding="utf-8"?>
<svg width="30px" height="30px" viewBox="0 0 30 30" version="1.1" xmlns:xlink="http://www.w3.org/1999/xlink" xmlns="http://www.w3.org/2000/svg">
  <desc>Created with Lunacy</desc>
  <path d="M14.9945 0C19.1352 0 22.8842 1.68305 25.6057 4.39249C28.3163 7.11356 30 10.861 30 15C30 19.139 28.3163 22.8864 25.6057 25.6075C22.8835 28.3169 19.1352 30 14.9945 30C10.8539 30 7.10559 28.3169 4.39503 25.6075C1.67284 22.8864 0 19.1397 0 15C0 10.861 1.67212 7.11356 4.3943 4.39249C7.10559 1.68305 10.8539 0 14.9945 0ZM14.9942 1.63721C18.6851 1.63721 22.03 3.12486 24.4521 5.54592C26.8749 7.96699 28.374 11.3106 28.374 14.9999C28.374 18.69 26.8741 22.0336 24.4521 24.4546C22.03 26.8757 18.6851 28.3634 14.9942 28.3634C11.3033 28.3634 7.95837 26.8757 5.5363 24.4546C3.12514 22.0328 1.62598 18.6893 1.62598 14.9999C1.62598 11.3106 3.12587 7.96699 5.5363 5.54592C7.95837 3.12413 11.3033 1.63721 14.9942 1.63721ZM22.6423 14.1812C23.0921 14.1812 23.4497 14.5502 23.4497 14.9999C23.4497 15.4495 23.0921 15.8185 22.6423 15.8185L14.9946 15.8185C14.6945 15.8185 14.4292 15.6456 14.2912 15.4038L14.2795 15.3921L14.2679 15.3689L14.2679 15.3573L14.2563 15.334L14.2447 15.3108L14.2447 15.2992L14.233 15.2759L14.2214 15.2643L14.2214 15.241L14.2098 15.2178L14.2098 15.2062L14.1982 15.1829L14.1982 15.1364L14.1865 15.1248L14.1865 5.23427C14.1865 4.78463 14.5441 4.42725 14.9939 4.42725C15.4437 4.42725 15.8129 4.78463 15.8129 5.23427L15.8129 14.1812L22.6423 14.1812Z" id="Shape" fill="#1E201D" fill-rule="evenodd" stroke="none" />
</svg>