<?xml version="1.0" encoding="utf-8"?>
<svg width="36px" height="44px" viewBox="0 0 36 44" version="1.1" xmlns:xlink="http://www.w3.org/1999/xlink" xmlns="http://www.w3.org/2000/svg">
  <desc>Created with Lunacy</desc>
  <path d="M4.5 4.51282C6.975 4.51282 9 2.48205 9 0L0 0C0 2.48205 2.0025 4.51282 4.5 4.51282Z" transform="translate(13.5 39.48718)" id="Path" fill="#FFFFFF" stroke="none" />
  <path d="M31.5 30.4615L31.5 19.1795C31.5 12.2523 27.81 6.45333 21.375 4.91897L21.375 3.38462C21.375 1.51179 19.8675 0 18 0C16.1325 0 14.625 1.51179 14.625 3.38462L14.625 4.91897C8.1675 6.45333 4.5 12.2297 4.5 19.1795L4.5 30.4615L0 34.9744L0 37.2308L36 37.2308L36 34.9744L31.5 30.4615Z" id="Path" fill="#FFFFFF" stroke="none" />
</svg>