<?xml version="1.0" encoding="utf-8"?>
<svg width="32px" height="32px" viewBox="0 0 32 32" version="1.1" xmlns:xlink="http://www.w3.org/1999/xlink" xmlns="http://www.w3.org/2000/svg">
  <desc>Created with Lunacy</desc>
  <g id="Outlined/UI/help">
    <path d="M0 14C0 6.26801 6.26801 0 14 0C17.713 0 21.274 1.475 23.8995 4.10051C26.525 6.72601 28 10.287 28 14C28 21.732 21.732 28 14 28C6.26801 28 0 21.732 0 14ZM2 14C2 20.6274 7.37258 26 14 26C17.1826 26 20.2348 24.7357 22.4853 22.4853C24.7357 20.2348 26 17.1826 26 14C26 7.37258 20.6274 2 14 2C7.37258 2 2 7.37258 2 14ZM12 5C10.3431 5 9 6.34315 9 8L9 10L11 10L11 8C11 7.44772 11.4477 7 12 7L16 7C16.5523 7 17 7.44772 17 8L17 9.17C17.0015 9.4358 16.8972 9.69128 16.71 9.88L13.88 12.71C13.3172 13.2721 13.0007 14.0346 13 14.83L13 18L15 18L15 14.83C14.9985 14.5642 15.1028 14.3087 15.29 14.12L18.12 11.29C18.6828 10.7279 18.9993 9.96538 19 9.17L19 8C19 6.34315 17.6569 5 16 5L12 5ZM16 22C16 23.1046 15.1046 24 14 24C12.8954 24 12 23.1046 12 22C12 20.8954 12.8954 20 14 20C15.1046 20 16 20.8954 16 22Z" transform="translate(2 2)" id="Style" fill="#252C32" fill-rule="evenodd" stroke="none" />
  </g>
</svg>