<?xml version="1.0" encoding="utf-8"?>
<svg width="4px" height="16px" viewBox="0 0 4 16" version="1.1" xmlns:xlink="http://www.w3.org/1999/xlink" xmlns="http://www.w3.org/2000/svg">
  <desc>Created with Lunacy</desc>
  <g id="Group-2-Copy-4">
    <path d="M2 4C3.10457 4 4 3.10457 4 2C4 0.895431 3.10457 0 2 0C0.895431 0 0 0.895431 0 2C0 3.10457 0.895431 4 2 4Z" transform="translate(0 6)" id="Oval" fill="#4A4A4A" stroke="none" />
    <path d="M2 4C3.10457 4 4 3.10457 4 2C4 0.895431 3.10457 0 2 0C0.895431 0 0 0.895431 0 2C0 3.10457 0.895431 4 2 4Z" id="Oval" fill="#4A4A4A" stroke="none" />
    <path d="M2 4C3.10457 4 4 3.10457 4 2C4 0.895431 3.10457 0 2 0C0.895431 0 0 0.895431 0 2C0 3.10457 0.895431 4 2 4Z" transform="translate(0 12)" id="Oval" fill="#4A4A4A" stroke="none" />
  </g>
</svg>