<?xml version="1.0" encoding="utf-8"?>
<svg width="32px" height="32px" viewBox="0 0 32 32" version="1.1" xmlns:xlink="http://www.w3.org/1999/xlink" xmlns="http://www.w3.org/2000/svg">
  <desc>Created with Lunacy</desc>
  <g id="Outlined/UI/settings">
    <path d="M23.2069 15.51C23.3648 14.5162 23.3648 13.5038 23.2069 12.51L24.5869 11.72C25.2452 11.3413 25.7258 10.7162 25.9228 9.98276C26.1198 9.24927 26.0169 8.46757 25.6369 7.81L24.7069 6.2C23.8941 4.8565 22.1549 4.41169 20.7969 5.2L19.4169 6C18.6283 5.365 17.7484 4.85257 16.8069 4.48L16.8069 2.83C16.7905 1.26219 15.5148 -8.62598e-05 13.9469 0L12.0869 0C10.5074 0 9.22693 1.28047 9.22693 2.86L9.22693 4.41C8.28546 4.78257 7.40556 5.295 6.61693 5.93L5.23693 5.13C3.88054 4.33009 2.13272 4.77711 1.32693 6.13L0.396926 7.79C-0.39138 9.14801 0.053427 10.8872 1.39693 11.7L2.77693 12.49C2.61904 13.4838 2.61904 14.4962 2.77693 15.49L1.39693 16.28C0.0440328 17.0858 -0.402981 18.8336 0.396926 20.19L1.32693 21.8C2.1229 23.1616 3.86595 23.6296 5.23693 22.85L6.61693 22.05C7.40556 22.685 8.28546 23.1974 9.22693 23.57L9.22693 25.15C9.23244 26.7256 10.5113 28 12.0869 28L13.9469 28C15.5265 28 16.8069 26.7195 16.8069 25.14L16.8069 23.59C17.7484 23.2174 18.6283 22.705 19.4169 22.07L20.7969 22.87C21.4545 23.25 22.2362 23.3529 22.9697 23.1559C23.7032 22.9589 24.3282 22.4783 24.7069 21.82L25.6369 20.21C26.4166 18.839 25.9485 17.096 24.5869 16.3L23.2069 15.51ZM23.8969 19.21L23.0169 20.82C22.7814 21.2304 22.2585 21.3734 21.8469 21.14L19.2169 19.62L18.6769 20.11C17.7831 20.9384 16.7179 21.5597 15.5569 21.93L14.8569 22.15L14.8569 25.15C14.8569 25.625 14.4719 26.01 13.9969 26.01L12.0869 26.01C11.612 26.01 11.2269 25.625 11.2269 25.15L11.2269 22.15L10.5269 21.93C9.36593 21.5597 8.30071 20.9384 7.40693 20.11L6.86693 19.62L4.23693 21.14C4.03895 21.2503 3.80574 21.279 3.58693 21.22C3.36654 21.1627 3.17887 21.0183 3.06693 20.82L2.13693 19.21C2.01103 19.0101 1.97293 18.7672 2.03156 18.5383C2.0902 18.3094 2.24041 18.1148 2.44693 18L5.06693 16.49L4.90693 15.77C4.7768 15.1788 4.70975 14.5754 4.70693 13.97C4.70852 13.364 4.77897 12.7601 4.91693 12.17L5.06693 11.45L2.44693 10C2.24879 9.88514 2.10465 9.696 2.04645 9.47449C1.98826 9.25298 2.02082 9.01741 2.13693 8.82L3.06693 7.21C3.30248 6.79963 3.8253 6.65664 4.23693 6.89L6.86693 8.41L7.40693 7.92C8.30071 7.09165 9.36593 6.47027 10.5269 6.1L11.2269 5.88L11.2269 2.88C11.2215 2.64847 11.3098 2.42455 11.4716 2.25892C11.6335 2.09328 11.8553 1.99994 12.0869 2L13.9469 2C14.4219 2 14.8069 2.38504 14.8069 2.86L14.8069 5.86L15.5069 6.08C16.6679 6.45027 17.7331 7.07165 18.6269 7.9L19.1669 8.39L21.7969 6.87C21.9949 6.75969 22.2281 6.73099 22.4469 6.79C22.6673 6.84734 22.855 6.99169 22.9669 7.19L23.8969 8.8C24.0195 8.99912 24.0557 9.23956 23.9972 9.46596C23.9388 9.69235 23.7906 9.88517 23.5869 10L21.0169 11.48L21.1769 12.2C21.3071 12.7912 21.3741 13.3946 21.3769 14C21.3753 14.606 21.3049 15.2099 21.1669 15.8L21.0169 16.52L23.5869 18C23.7934 18.1148 23.9437 18.3094 24.0023 18.5383C24.0609 18.7672 24.0228 19.0101 23.8969 19.21ZM13.0169 10C10.8078 10 9.01693 11.7909 9.01693 14C9.01693 16.2091 10.8078 18 13.0169 18C15.2261 18 17.0169 16.2091 17.0169 14C17.0169 11.7909 15.2261 10 13.0169 10ZM13.0169 16C11.9124 16 11.0169 15.1046 11.0169 14C11.0169 12.8954 11.9124 12 13.0169 12C14.1215 12 15.0169 12.8954 15.0169 14C15.0169 15.1046 14.1215 16 13.0169 16Z" transform="translate(2.983074 2)" id="Style" fill="#252C32" fill-rule="evenodd" stroke="none" />
  </g>
</svg>