<svg xmlns="http://www.w3.org/2000/svg" xmlns:xlink="http://www.w3.org/1999/xlink" width="24" height="24" viewBox="0 0 24 24">
    <defs>
        <path id="prefix__a" d="M0 4h4V0H0v4zm0 5h4V5H0v4zm5 0h4V5H5v4zm5 0h4V5h-4v4zM5 4h4V0H5v4zm5-4v4h4V0h-4zm5 9h4V5h-4v4zM0 14h4v-4H0v4zm5 0h4v-4H5v4zm5 0h4v-4h-4v4zm5 0h4v-4h-4v4zm0-14v4h4V0h-4z"/>
    </defs>
    <g fill="none" fill-rule="evenodd" transform="translate(3 5)">
        <mask id="prefix__b" fill="#fff">
            <use xlink:href="#prefix__a"/>
        </mask>
        <g fill="#79828B" mask="url(#prefix__b)">
            <path d="M0 0L50 0 50 50 0 50z" transform="translate(-16 -18)"/>
        </g>
    </g>
</svg>
