<?xml version="1.0" encoding="utf-8"?>
<svg width="56px" height="57px" viewBox="0 0 56 57" version="1.1" xmlns:xlink="http://www.w3.org/1999/xlink" xmlns="http://www.w3.org/2000/svg">
  <desc>Created with Lunacy</desc>
  <path d="M53.2733 27.3237C54.4566 27.9292 55.3516 28.9841 55.7605 30.2552C56.5993 32.8897 55.165 35.7112 52.5516 36.5674L47.5211 38.2142L49.2096 43.4402C49.9329 46.0371 48.4921 48.746 45.944 49.5799C43.3959 50.4137 40.6481 49.0755 39.7161 46.5469L38.0276 41.3456L27.5182 44.7837L29.2067 50.0027C29.9212 52.5969 28.4793 55.2974 25.9356 56.1288C23.392 56.9603 20.6491 55.6277 19.7132 53.1059L18.0422 47.8798L12.8471 49.5795C10.2699 50.2988 7.58717 48.8473 6.7612 46.2868C5.93522 43.7264 7.25903 40.9653 9.7643 40.0232L14.9314 38.3235L11.5159 27.7445L6.33123 29.4442C3.75407 30.1634 1.07134 28.712 0.245367 26.1515C-0.580609 23.591 0.743197 20.8299 3.24847 19.8878L8.44012 18.1917L6.80415 13.1243C5.95191 10.4845 7.387 7.64894 10.0095 6.79105C12.632 5.93316 15.4489 7.37775 16.3011 10.0176L17.9336 15.0744L28.443 11.6362L26.807 6.57947C26.2557 4.87176 26.6514 2.99771 27.8449 1.66325C29.0384 0.328786 30.8486 -0.263347 32.5934 0.1099C34.3382 0.483146 35.7527 1.76507 36.304 3.47277L37.9435 8.53658L42.974 6.88979C44.6705 6.33483 46.5322 6.73308 47.8579 7.93452C49.1836 9.13596 49.7718 10.9581 49.401 12.7145C49.0302 14.4709 47.7568 15.8947 46.0603 16.4497L41.0298 18.0965L44.4453 28.6754L49.4548 27.0287C50.716 26.6121 52.0901 26.7182 53.2733 27.3237ZM31.5289 21.2031L21.0195 24.6413L24.4351 35.2203L34.9445 31.7821L31.5289 21.2031Z" id="slack" fill="#FFFFFF" fill-rule="evenodd" stroke="none" />
</svg>